{
    "asset" : {
        "generator" : "Khronos glTF Blender I/O v3.4.50",
        "version" : "2.0"
    },
    "scene" : 0,
    "scenes" : [
        {
            "name" : "Scene",
            "nodes" : [
                0,
                1,
                2,
                3,
                4,
                5,
                6,
                7,
                8,
                9,
                10
            ]
        }
    ],
    "nodes" : [
        {
            "mesh" : 0,
            "name" : "Body",
            "translation" : [
                0,
                1.73281729221344,
                0
            ]
        },
        {
            "mesh" : 1,
            "name" : "top detail",
            "translation" : [
                0,
                2.1811888217926025,
                -1.2861735820770264
            ]
        },
        {
            "mesh" : 2,
            "name" : "light 1",
            "translation" : [
                0.7674526572227478,
                1.3492425680160522,
                1.6352075338363647
            ]
        },
        {
            "mesh" : 3,
            "name" : "light 2",
            "rotation" : [
                0.7071068286895752,
                0,
                0,
                0.7071068286895752
            ],
            "scale" : [
                0.14099442958831787,
                0.14099442958831787,
                0.14099442958831787
            ],
            "translation" : [
                0.9721459746360779,
                1.628300666809082,
                1.4429770708084106
            ]
        },
        {
            "mesh" : 4,
            "name" : "capsule top only",
            "translation" : [
                0.4741503596305847,
                2.552367687225342,
                -2.353893756866455
            ]
        },
        {
            "mesh" : 5,
            "name" : "Cylinder",
            "scale" : [
                1.650193691253662,
                1.650193691253662,
                1.650193691253662
            ],
            "translation" : [
                -0.12952247262001038,
                2.5002739429473877,
                0.041889581829309464
            ]
        },
        {
            "mesh" : 6,
            "name" : "Cylinder.001",
            "scale" : [
                0.9149225354194641,
                0.9149225354194641,
                0.9149225354194641
            ],
            "translation" : [
                -0.5819051265716553,
                2.487022638320923,
                -2.501784563064575
            ]
        },
        {
            "mesh" : 7,
            "name" : "Rung",
            "translation" : [
                1.4887884855270386,
                1.3307890892028809,
                0.02239382266998291
            ]
        },
        {
            "mesh" : 8,
            "name" : "gun body",
            "rotation" : [
                0.7071068286895752,
                0,
                0,
                0.7071068286895752
            ],
            "translation" : [
                -1.0477229356765747,
                1.2427128553390503,
                0.7344053387641907
            ]
        },
        {
            "mesh" : 9,
            "name" : "barrel 1",
            "translation" : [
                -1.047698974609375,
                1.3307892084121704,
                1.190567135810852
            ]
        },
        {
            "name" : "Empty",
            "rotation" : [
                0,
                0,
                -0.7071068286895752,
                0.7071068286895752
            ],
            "translation" : [
                -1.047698974609375,
                1.24785578250885,
                1.190567135810852
            ]
        }
    ],
    "meshes" : [
        {
            "name" : "Cube.009",
            "primitives" : [
                {
                    "attributes" : {
                        "POSITION" : 0,
                        "TEXCOORD_0" : 1,
                        "NORMAL" : 2
                    },
                    "indices" : 3
                },
                {
                    "attributes" : {
                        "POSITION" : 4,
                        "TEXCOORD_0" : 5,
                        "NORMAL" : 6
                    },
                    "indices" : 7
                },
                {
                    "attributes" : {
                        "POSITION" : 8,
                        "TEXCOORD_0" : 9,
                        "NORMAL" : 10
                    },
                    "indices" : 11
                }
            ]
        },
        {
            "name" : "Cube.011",
            "primitives" : [
                {
                    "attributes" : {
                        "POSITION" : 12,
                        "TEXCOORD_0" : 13,
                        "NORMAL" : 14
                    },
                    "indices" : 15
                }
            ]
        },
        {
            "name" : "Cylinder",
            "primitives" : [
                {
                    "attributes" : {
                        "POSITION" : 16,
                        "TEXCOORD_0" : 17,
                        "NORMAL" : 18
                    },
                    "indices" : 19
                }
            ]
        },
        {
            "name" : "Cylinder.001",
            "primitives" : [
                {
                    "attributes" : {
                        "POSITION" : 20,
                        "TEXCOORD_0" : 21,
                        "NORMAL" : 22
                    },
                    "indices" : 23
                }
            ]
        },
        {
            "name" : "Sphere.001",
            "primitives" : [
                {
                    "attributes" : {
                        "POSITION" : 24,
                        "TEXCOORD_0" : 25,
                        "NORMAL" : 26
                    },
                    "indices" : 27
                }
            ]
        },
        {
            "name" : "Cylinder.003",
            "primitives" : [
                {
                    "attributes" : {
                        "POSITION" : 28,
                        "TEXCOORD_0" : 29,
                        "NORMAL" : 30
                    },
                    "indices" : 31
                }
            ]
        },
        {
            "name" : "Cylinder.004",
            "primitives" : [
                {
                    "attributes" : {
                        "POSITION" : 32,
                        "TEXCOORD_0" : 33,
                        "NORMAL" : 34
                    },
                    "indices" : 31
                }
            ]
        },
        {
            "name" : "Cube.010",
            "primitives" : [
                {
                    "attributes" : {
                        "POSITION" : 35,
                        "TEXCOORD_0" : 36,
                        "NORMAL" : 37
                    },
                    "indices" : 38
                }
            ]
        },
        {
            "name" : "Cylinder.006",
            "primitives" : [
                {
                    "attributes" : {
                        "POSITION" : 39,
                        "TEXCOORD_0" : 40,
                        "NORMAL" : 41
                    },
                    "indices" : 42
                }
            ]
        },
        {
            "name" : "Cylinder.005",
            "primitives" : [
                {
                    "attributes" : {
                        "POSITION" : 43,
                        "TEXCOORD_0" : 44,
                        "NORMAL" : 45
                    },
                    "indices" : 46
                }
            ]
        }
    ],
    "accessors" : [
        {
            "bufferView" : 0,
            "componentType" : 5126,
            "count" : 316,
            "max" : [
                1.419069528579712,
                0.7953441143035889,
                2.0448925495147705
            ],
            "min" : [
                -1.419069528579712,
                -0.7953441739082336,
                -2.8972420692443848
            ],
            "type" : "VEC3"
        },
        {
            "bufferView" : 1,
            "componentType" : 5126,
            "count" : 316,
            "type" : "VEC2"
        },
        {
            "bufferView" : 2,
            "componentType" : 5126,
            "count" : 316,
            "type" : "VEC3"
        },
        {
            "bufferView" : 3,
            "componentType" : 5123,
            "count" : 564,
            "type" : "SCALAR"
        },
        {
            "bufferView" : 4,
            "componentType" : 5126,
            "count" : 48,
            "max" : [
                1.0010478496551514,
                0.7953441143035889,
                -1.9556294679641724
            ],
            "min" : [
                -1.0010478496551514,
                -0.14028935134410858,
                -2.1090478897094727
            ],
            "type" : "VEC3"
        },
        {
            "bufferView" : 5,
            "componentType" : 5126,
            "count" : 48,
            "type" : "VEC2"
        },
        {
            "bufferView" : 6,
            "componentType" : 5126,
            "count" : 48,
            "type" : "VEC3"
        },
        {
            "bufferView" : 7,
            "componentType" : 5123,
            "count" : 120,
            "type" : "SCALAR"
        },
        {
            "bufferView" : 8,
            "componentType" : 5126,
            "count" : 46,
            "max" : [
                1.0011651515960693,
                0.7953441143035889,
                -1.0086497068405151
            ],
            "min" : [
                -1.0011651515960693,
                -0.7953440546989441,
                -1.2952572107315063
            ],
            "type" : "VEC3"
        },
        {
            "bufferView" : 9,
            "componentType" : 5126,
            "count" : 46,
            "type" : "VEC2"
        },
        {
            "bufferView" : 10,
            "componentType" : 5126,
            "count" : 46,
            "type" : "VEC3"
        },
        {
            "bufferView" : 11,
            "componentType" : 5123,
            "count" : 114,
            "type" : "SCALAR"
        },
        {
            "bufferView" : 12,
            "componentType" : 5126,
            "count" : 36,
            "max" : [
                0.2625052034854889,
                0.39149564504623413,
                1.66798734664917
            ],
            "min" : [
                -0.2625052034854889,
                -0.39149564504623413,
                -1.66798734664917
            ],
            "type" : "VEC3"
        },
        {
            "bufferView" : 13,
            "componentType" : 5126,
            "count" : 36,
            "type" : "VEC2"
        },
        {
            "bufferView" : 14,
            "componentType" : 5126,
            "count" : 36,
            "type" : "VEC3"
        },
        {
            "bufferView" : 15,
            "componentType" : 5123,
            "count" : 60,
            "type" : "SCALAR"
        },
        {
            "bufferView" : 16,
            "componentType" : 5126,
            "count" : 84,
            "max" : [
                0.19694915413856506,
                0.22741730511188507,
                0.22741730511188507
            ],
            "min" : [
                -0.19694915413856506,
                -0.22741730511188507,
                -0.22741730511188507
            ],
            "type" : "VEC3"
        },
        {
            "bufferView" : 17,
            "componentType" : 5126,
            "count" : 84,
            "type" : "VEC2"
        },
        {
            "bufferView" : 18,
            "componentType" : 5126,
            "count" : 84,
            "type" : "VEC3"
        },
        {
            "bufferView" : 19,
            "componentType" : 5123,
            "count" : 132,
            "type" : "SCALAR"
        },
        {
            "bufferView" : 20,
            "componentType" : 5126,
            "count" : 80,
            "max" : [
                0.8660253882408142,
                1,
                1
            ],
            "min" : [
                -0.8660253882408142,
                -1,
                -1
            ],
            "type" : "VEC3"
        },
        {
            "bufferView" : 21,
            "componentType" : 5126,
            "count" : 80,
            "type" : "VEC2"
        },
        {
            "bufferView" : 22,
            "componentType" : 5126,
            "count" : 80,
            "type" : "VEC3"
        },
        {
            "bufferView" : 23,
            "componentType" : 5123,
            "count" : 132,
            "type" : "SCALAR"
        },
        {
            "bufferView" : 24,
            "componentType" : 5126,
            "count" : 90,
            "max" : [
                0.18067486584186554,
                0.20862534642219543,
                0.20862534642219543
            ],
            "min" : [
                -0.18067485094070435,
                -0.1562582552433014,
                -0.20862534642219543
            ],
            "type" : "VEC3"
        },
        {
            "bufferView" : 25,
            "componentType" : 5126,
            "count" : 90,
            "type" : "VEC2"
        },
        {
            "bufferView" : 26,
            "componentType" : 5126,
            "count" : 90,
            "type" : "VEC3"
        },
        {
            "bufferView" : 27,
            "componentType" : 5123,
            "count" : 126,
            "type" : "SCALAR"
        },
        {
            "bufferView" : 28,
            "componentType" : 5126,
            "count" : 66,
            "max" : [
                0.06311631947755814,
                0.06311631947755814,
                0.06311631947755814
            ],
            "min" : [
                -0.06311631947755814,
                -0.06311631947755814,
                -0.06311631947755814
            ],
            "type" : "VEC3"
        },
        {
            "bufferView" : 29,
            "componentType" : 5126,
            "count" : 66,
            "type" : "VEC2"
        },
        {
            "bufferView" : 30,
            "componentType" : 5126,
            "count" : 66,
            "type" : "VEC3"
        },
        {
            "bufferView" : 31,
            "componentType" : 5123,
            "count" : 96,
            "type" : "SCALAR"
        },
        {
            "bufferView" : 32,
            "componentType" : 5126,
            "count" : 66,
            "max" : [
                0.06311631947755814,
                0.06311631947755814,
                0.06311631947755814
            ],
            "min" : [
                -0.06311631947755814,
                -0.06311631947755814,
                -0.06311631947755814
            ],
            "type" : "VEC3"
        },
        {
            "bufferView" : 33,
            "componentType" : 5126,
            "count" : 66,
            "type" : "VEC2"
        },
        {
            "bufferView" : 34,
            "componentType" : 5126,
            "count" : 66,
            "type" : "VEC3"
        },
        {
            "bufferView" : 35,
            "componentType" : 5126,
            "count" : 456,
            "max" : [
                0.025500137358903885,
                0.32061368227005005,
                0.11215569078922272
            ],
            "min" : [
                -3.0030770301818848,
                -0.023926297202706337,
                -0.11215569078922272
            ],
            "type" : "VEC3"
        },
        {
            "bufferView" : 36,
            "componentType" : 5126,
            "count" : 456,
            "type" : "VEC2"
        },
        {
            "bufferView" : 37,
            "componentType" : 5126,
            "count" : 456,
            "type" : "VEC3"
        },
        {
            "bufferView" : 38,
            "componentType" : 5123,
            "count" : 936,
            "type" : "SCALAR"
        },
        {
            "bufferView" : 39,
            "componentType" : 5126,
            "count" : 96,
            "max" : [
                0.1744622439146042,
                1.3216156959533691,
                0.1744622439146042
            ],
            "min" : [
                -0.1744622439146042,
                -1.3216156959533691,
                -0.1744622439146042
            ],
            "type" : "VEC3"
        },
        {
            "bufferView" : 40,
            "componentType" : 5126,
            "count" : 96,
            "type" : "VEC2"
        },
        {
            "bufferView" : 41,
            "componentType" : 5126,
            "count" : 96,
            "type" : "VEC3"
        },
        {
            "bufferView" : 42,
            "componentType" : 5123,
            "count" : 168,
            "type" : "SCALAR"
        },
        {
            "bufferView" : 43,
            "componentType" : 5126,
            "count" : 341,
            "max" : [
                0.13660261034965515,
                0.05000004544854164,
                1
            ],
            "min" : [
                -0.13293348252773285,
                -0.21953603625297546,
                -1
            ],
            "type" : "VEC3"
        },
        {
            "bufferView" : 44,
            "componentType" : 5126,
            "count" : 341,
            "type" : "VEC2"
        },
        {
            "bufferView" : 45,
            "componentType" : 5126,
            "count" : 341,
            "type" : "VEC3"
        },
        {
            "bufferView" : 46,
            "componentType" : 5123,
            "count" : 576,
            "type" : "SCALAR"
        }
    ],
    "bufferViews" : [
        {
            "buffer" : 0,
            "byteLength" : 3792,
            "byteOffset" : 0,
            "target" : 34962
        },
        {
            "buffer" : 0,
            "byteLength" : 2528,
            "byteOffset" : 3792,
            "target" : 34962
        },
        {
            "buffer" : 0,
            "byteLength" : 3792,
            "byteOffset" : 6320,
            "target" : 34962
        },
        {
            "buffer" : 0,
            "byteLength" : 1128,
            "byteOffset" : 10112,
            "target" : 34963
        },
        {
            "buffer" : 0,
            "byteLength" : 576,
            "byteOffset" : 11240,
            "target" : 34962
        },
        {
            "buffer" : 0,
            "byteLength" : 384,
            "byteOffset" : 11816,
            "target" : 34962
        },
        {
            "buffer" : 0,
            "byteLength" : 576,
            "byteOffset" : 12200,
            "target" : 34962
        },
        {
            "buffer" : 0,
            "byteLength" : 240,
            "byteOffset" : 12776,
            "target" : 34963
        },
        {
            "buffer" : 0,
            "byteLength" : 552,
            "byteOffset" : 13016,
            "target" : 34962
        },
        {
            "buffer" : 0,
            "byteLength" : 368,
            "byteOffset" : 13568,
            "target" : 34962
        },
        {
            "buffer" : 0,
            "byteLength" : 552,
            "byteOffset" : 13936,
            "target" : 34962
        },
        {
            "buffer" : 0,
            "byteLength" : 228,
            "byteOffset" : 14488,
            "target" : 34963
        },
        {
            "buffer" : 0,
            "byteLength" : 432,
            "byteOffset" : 14716,
            "target" : 34962
        },
        {
            "buffer" : 0,
            "byteLength" : 288,
            "byteOffset" : 15148,
            "target" : 34962
        },
        {
            "buffer" : 0,
            "byteLength" : 432,
            "byteOffset" : 15436,
            "target" : 34962
        },
        {
            "buffer" : 0,
            "byteLength" : 120,
            "byteOffset" : 15868,
            "target" : 34963
        },
        {
            "buffer" : 0,
            "byteLength" : 1008,
            "byteOffset" : 15988,
            "target" : 34962
        },
        {
            "buffer" : 0,
            "byteLength" : 672,
            "byteOffset" : 16996,
            "target" : 34962
        },
        {
            "buffer" : 0,
            "byteLength" : 1008,
            "byteOffset" : 17668,
            "target" : 34962
        },
        {
            "buffer" : 0,
            "byteLength" : 264,
            "byteOffset" : 18676,
            "target" : 34963
        },
        {
            "buffer" : 0,
            "byteLength" : 960,
            "byteOffset" : 18940,
            "target" : 34962
        },
        {
            "buffer" : 0,
            "byteLength" : 640,
            "byteOffset" : 19900,
            "target" : 34962
        },
        {
            "buffer" : 0,
            "byteLength" : 960,
            "byteOffset" : 20540,
            "target" : 34962
        },
        {
            "buffer" : 0,
            "byteLength" : 264,
            "byteOffset" : 21500,
            "target" : 34963
        },
        {
            "buffer" : 0,
            "byteLength" : 1080,
            "byteOffset" : 21764,
            "target" : 34962
        },
        {
            "buffer" : 0,
            "byteLength" : 720,
            "byteOffset" : 22844,
            "target" : 34962
        },
        {
            "buffer" : 0,
            "byteLength" : 1080,
            "byteOffset" : 23564,
            "target" : 34962
        },
        {
            "buffer" : 0,
            "byteLength" : 252,
            "byteOffset" : 24644,
            "target" : 34963
        },
        {
            "buffer" : 0,
            "byteLength" : 792,
            "byteOffset" : 24896,
            "target" : 34962
        },
        {
            "buffer" : 0,
            "byteLength" : 528,
            "byteOffset" : 25688,
            "target" : 34962
        },
        {
            "buffer" : 0,
            "byteLength" : 792,
            "byteOffset" : 26216,
            "target" : 34962
        },
        {
            "buffer" : 0,
            "byteLength" : 192,
            "byteOffset" : 27008,
            "target" : 34963
        },
        {
            "buffer" : 0,
            "byteLength" : 792,
            "byteOffset" : 27200,
            "target" : 34962
        },
        {
            "buffer" : 0,
            "byteLength" : 528,
            "byteOffset" : 27992,
            "target" : 34962
        },
        {
            "buffer" : 0,
            "byteLength" : 792,
            "byteOffset" : 28520,
            "target" : 34962
        },
        {
            "buffer" : 0,
            "byteLength" : 5472,
            "byteOffset" : 29312,
            "target" : 34962
        },
        {
            "buffer" : 0,
            "byteLength" : 3648,
            "byteOffset" : 34784,
            "target" : 34962
        },
        {
            "buffer" : 0,
            "byteLength" : 5472,
            "byteOffset" : 38432,
            "target" : 34962
        },
        {
            "buffer" : 0,
            "byteLength" : 1872,
            "byteOffset" : 43904,
            "target" : 34963
        },
        {
            "buffer" : 0,
            "byteLength" : 1152,
            "byteOffset" : 45776,
            "target" : 34962
        },
        {
            "buffer" : 0,
            "byteLength" : 768,
            "byteOffset" : 46928,
            "target" : 34962
        },
        {
            "buffer" : 0,
            "byteLength" : 1152,
            "byteOffset" : 47696,
            "target" : 34962
        },
        {
            "buffer" : 0,
            "byteLength" : 336,
            "byteOffset" : 48848,
            "target" : 34963
        },
        {
            "buffer" : 0,
            "byteLength" : 4092,
            "byteOffset" : 49184,
            "target" : 34962
        },
        {
            "buffer" : 0,
            "byteLength" : 2728,
            "byteOffset" : 53276,
            "target" : 34962
        },
        {
            "buffer" : 0,
            "byteLength" : 4092,
            "byteOffset" : 56004,
            "target" : 34962
        },
        {
            "buffer" : 0,
            "byteLength" : 1152,
            "byteOffset" : 60096,
            "target" : 34963
        }
    ],
    "buffers" : [
        {
            "byteLength" : 61248,
            "uri" : "data:application/octet-stream;base64,"
        }
    ]
}
